<svg width="16" height="20" viewBox="0 0 16 20" fill="none" xmlns="http://www.w3.org/2000/svg">
<path d="M8 8L4 2.4L5.6 0H10.4L12 2.4L8 8ZM11.5 4.8L10.3 6.5C12.5 7.4 14 9.5 14 12C14 13.5913 13.3679 15.1174 12.2426 16.2426C11.1174 17.3679 9.5913 18 8 18C6.4087 18 4.88258 17.3679 3.75736 16.2426C2.63214 15.1174 2 13.5913 2 12C2 9.5 3.5 7.4 5.7 6.5L4.5 4.8C1.8 6.1 0 8.8 0 12C0 14.1217 0.842855 16.1566 2.34315 17.6569C3.84344 19.1571 5.87827 20 8 20C10.1217 20 12.1566 19.1571 13.6569 17.6569C15.1571 16.1566 16 14.1217 16 12C16 8.8 14.2 6.1 11.5 4.8Z" fill="#C06C6E"/>
</svg>
